<svg width="16" height="16" viewBox="0 0 16 16" fill="none" xmlns="http://www.w3.org/2000/svg">
<path fill-rule="evenodd" clip-rule="evenodd" d="M5.86233 4.15476C6.053 4.35451 6.04564 4.67101 5.84589 4.86168L3.08193 7.5L14.1673 7.5C14.4435 7.5 14.6673 7.72386 14.6673 8C14.6673 8.27614 14.4435 8.5 14.1673 8.5L3.08193 8.5L5.84589 11.1383C6.04564 11.329 6.053 11.6455 5.86233 11.8452C5.67166 12.045 5.35516 12.0523 5.15541 11.8617L1.48875 8.36168C1.43019 8.30579 1.38825 8.23923 1.36293 8.16805C1.34642 8.12166 1.33697 8.0733 1.33459 8.02467C1.33419 8.01645 1.33398 8.00822 1.33398 8M1.48942 7.63768L5.15541 4.13832C5.35516 3.94765 5.67166 3.95501 5.86233 4.15476M1.48875 7.63832C1.48807 7.63897 1.48739 7.63962 1.48672 7.64027L1.48875 7.63832ZM1.48672 7.64027C1.43186 7.69324 1.38908 7.75865 1.36293 7.83195C1.38796 7.7616 1.42922 7.69576 1.48672 7.64027Z" fill="white"/>
</svg>
