<svg width="16" height="16" viewBox="0 0 16 16" fill="none" xmlns="http://www.w3.org/2000/svg">
<path fill-rule="evenodd" clip-rule="evenodd" d="M10.1377 11.8452C9.947 11.6455 9.95436 11.329 10.1541 11.1383L12.9181 8.5L1.83268 8.5C1.55654 8.5 1.33268 8.27614 1.33268 8C1.33268 7.72386 1.55654 7.5 1.83268 7.5L12.9181 7.5L10.1541 4.86168C9.95436 4.67101 9.947 4.35451 10.1377 4.15476C10.3283 3.95501 10.6448 3.94765 10.8446 4.13832L14.5113 7.63832C14.5698 7.69421 14.6117 7.76077 14.6371 7.83195C14.6548 7.88167 14.6649 7.93503 14.6659 7.9906C14.666 7.99373 14.666 7.99686 14.666 8C14.666 8.00314 14.666 8.00627 14.6659 8.0094C14.6649 8.06497 14.6548 8.11833 14.6371 8.16805C14.612 8.2384 14.5708 8.30424 14.5133 8.35973M14.5104 8.36246L10.8446 11.8617C10.6448 12.0523 10.3283 12.045 10.1377 11.8452" fill="white"/>
</svg>
