<svg width="1216" height="580" viewBox="0 0 1216 580" fill="none" xmlns="http://www.w3.org/2000/svg">
<rect width="1216" height="580" rx="20" fill="#F5FAFF"/>
<mask id="mask0_5038_67207" style="mask-type:alpha" maskUnits="userSpaceOnUse" x="0" y="0" width="1216" height="580">
<rect width="1216" height="580" rx="20" fill="#F5FAFF"/>
</mask>
<g mask="url(#mask0_5038_67207)">
<path opacity="0.3" d="M226.749 849.367C237.908 822.455 247.485 794.775 255.421 766.491C312.53 615.806 467.18 641.835 587.794 660.458C604.465 663.032 614.69 644.409 604.331 630.228C529.712 528.078 439.387 424.831 402.965 298.11C377.81 200.936 499.556 91.8317 623.178 -9.29903" stroke="#5583FF" stroke-width="0.5" stroke-miterlimit="10"/>
<path opacity="0.3" d="M200.371 846.437C211.639 819.7 221.36 792.197 229.478 764.089C287.005 614.04 439.949 637.377 558.358 652.477C574.639 654.554 584.452 636.46 574.568 622.478C501.674 519.355 411.313 415.541 376.535 287.835C374.558 280.118 373.571 272.155 373.601 264.175C372.593 175.342 492.384 68.1686 603.301 -22.6604" stroke="#5583FF" stroke-width="0.5" stroke-miterlimit="10"/>
<path opacity="0.3" d="M173.999 843.481C185.343 816.888 195.172 789.536 203.433 761.578C261.356 612.241 412.512 632.757 528.65 644.315C544.524 645.895 553.933 628.33 544.559 614.537C473.747 510.343 384.779 405.557 349.999 277.456C348.045 269.641 347.172 261.568 347.412 253.506C347.798 166.939 475.24 52.4526 583.276 -36.038" stroke="#5583FF" stroke-width="0.5" stroke-miterlimit="10"/>
<path opacity="0.3" d="M147.677 840.535C159.16 814.129 169.16 786.962 177.621 759.185C235.983 610.558 385.253 628.193 499.182 636.216C514.633 637.304 523.64 620.27 514.767 606.683C446.064 501.482 358.562 395.767 323.768 267.263C321.857 259.358 321.097 251.191 321.515 243.066C323.239 158.788 458.371 36.9641 563.546 -49.2346" stroke="#5583FF" stroke-width="0.5" stroke-miterlimit="10"/>
<path opacity="0.3" d="M121.284 837.591C132.902 811.353 143.049 784.349 151.671 756.724C210.425 608.838 357.81 623.515 469.412 627.792C484.403 628.366 492.978 611.885 484.614 598.537C418.053 492.313 332.079 385.591 297.298 256.738C295.41 248.697 294.761 240.387 295.375 232.154C298.385 150.191 441.276 21.0211 543.581 -62.8452" stroke="#5583FF" stroke-width="0.5" stroke-miterlimit="10"/>
<path opacity="0.3" d="M94.834 834.64C106.545 808.565 116.835 781.737 125.653 754.294C184.797 607.168 330.187 618.76 439.461 619.552C454.001 619.657 462.16 603.704 454.28 590.59C389.884 483.431 305.541 375.731 270.721 246.579C268.902 238.4 268.39 229.959 269.206 221.633C273.397 142.037 424.174 5.37735 523.61 -76.2617" stroke="#5583FF" stroke-width="0.5" stroke-miterlimit="10"/>
<path opacity="0.3" d="M68.4231 831.691C80.2399 805.768 90.6655 779.096 99.6477 751.807C159.182 605.457 302.679 614.015 409.562 611.104C423.605 610.722 431.313 595.326 423.932 582.482C361.762 474.3 279.213 365.582 244.245 236.207C242.441 227.921 242.044 219.366 243.073 210.971C248.326 133.698 406.992 -10.2076 503.569 -89.4805" stroke="#5583FF" stroke-width="0.5" stroke-miterlimit="10"/>
<path opacity="0.3" d="M42.0024 828.574C53.956 802.818 64.5299 776.305 73.671 749.165C133.655 603.535 274.985 608.948 379.622 602.406C393.16 601.559 400.435 586.712 393.533 574.151C333.547 464.991 252.421 355.369 217.671 225.68C215.91 217.267 215.632 208.588 216.854 200.111C223.077 125.173 389.745 -26.1173 483.493 -103.112" stroke="#5583FF" stroke-width="0.5" stroke-miterlimit="10"/>
<path opacity="0.3" d="M15.4925 825.785C27.559 800.201 38.2757 773.861 47.5908 746.895C107.962 602.068 247.194 604.201 349.512 593.926C362.52 592.62 369.354 578.323 362.924 566.064C305.195 456.005 225.985 345.451 191.248 215.528C189.5 207.005 189.339 198.208 190.774 189.668C197.875 117.079 372.615 -41.6058 463.525 -116.281" stroke="#5583FF" stroke-width="0.5" stroke-miterlimit="10"/>
<path opacity="0.3" d="M-11.0209 822.813C1.16517 797.385 12.0289 771.205 21.5192 744.396C82.2768 600.386 219.392 599.221 319.373 585.232C331.833 583.488 338.237 569.744 332.27 557.805C276.805 446.823 199.415 335.323 164.708 205.147C162.999 196.505 162.941 187.595 164.537 178.983C172.502 108.782 355.458 -57.2396 443.444 -129.724" stroke="#5583FF" stroke-width="0.5" stroke-miterlimit="10"/>
<path opacity="0.48" d="M-37.4186 819.884C-25.1184 794.613 -14.1335 768.582 -4.51546 741.913C56.6761 598.7 191.631 594.214 289.232 576.479C301.122 574.319 307.099 561.133 301.588 549.533C248.434 437.65 172.875 325.197 138.193 194.826C136.539 186.053 136.614 177.022 138.413 168.343C147.074 100.515 338.174 -72.9517 423.373 -143.107" stroke="#5583FF" stroke-width="0.5" stroke-miterlimit="10"/>
<path opacity="0.48" d="M-63.9797 816.866C-51.5646 791.761 -40.4227 765.906 -30.6042 739.419C30.9849 597.031 163.727 589.155 258.925 567.603C270.227 565.045 275.783 552.42 270.712 541.178C219.823 428.371 146.202 314.942 111.543 184.382C109.516 176.67 109.411 168.556 111.21 160.884C111.725 158.689 112.02 156.525 112.183 154.253C117.142 85.3362 322.149 -89.8556 403.202 -156.632" stroke="#5583FF" stroke-width="0.5" stroke-miterlimit="10"/>
<path opacity="0.48" d="M-90.46 813.902C-77.9067 788.982 -66.6345 763.293 -56.6961 736.955C5.3296 595.378 135.851 584.029 228.742 558.711C239.448 555.793 244.608 543.726 239.963 532.85C191.397 419.124 119.685 304.785 85.0996 174.081C83.0415 166.324 83.0068 158.147 84.9637 150.478C85.5705 148.1 85.923 145.74 86.1461 143.27C92.2275 75.9461 305.055 -105.623 383.178 -169.994" stroke="#5583FF" stroke-width="0.5" stroke-miterlimit="10"/>
<path opacity="0.48" d="M-116.899 810.955C-104.196 786.217 -92.7308 760.72 -82.5546 734.576C-20.13 593.811 108.115 578.963 198.592 549.827C208.685 546.577 213.452 535.067 209.22 524.575C162.99 409.97 93.3173 294.671 58.7731 163.828C56.6813 156.002 56.7091 147.74 58.811 140.048C59.5006 137.524 59.9056 135.004 60.1959 132.377C67.4644 66.5872 288.085 -121.351 363.396 -183.354" stroke="#5583FF" stroke-width="0.5" stroke-miterlimit="10"/>
<path opacity="0.48" d="M-143.451 808.198C-130.64 783.519 -119.07 758.071 -108.792 731.966C-45.9424 592.068 79.9713 573.619 168.052 540.647C177.524 537.101 181.907 526.146 178.069 516.048C134.186 400.582 66.5575 284.347 32.254 153.276C30.1552 145.42 30.2475 137.121 32.4702 129.447C33.2407 126.787 33.6978 124.109 34.0636 121.336C42.5496 56.9902 270.813 -137.254 343.12 -196.922" stroke="#5583FF" stroke-width="0.5" stroke-miterlimit="10"/>
<path opacity="0.48" d="M-169.903 805.019C-157 780.562 -145.304 755.342 -134.868 729.468C-71.62 590.419 51.9683 568.365 137.638 531.452C146.479 527.643 150.476 517.243 147.014 507.556C105.467 391.304 39.9206 274.067 5.52414 142.973C3.39955 135.077 3.55337 126.726 5.90787 119.063C6.77001 116.257 7.29014 113.402 7.74808 110.474C17.609 47.4181 253.341 -152.958 322.776 -210.291" stroke="#5583FF" stroke-width="0.5" stroke-miterlimit="10"/>
<path opacity="0.48" d="M-196.401 802.042C-183.361 777.767 -171.524 752.718 -160.942 727.003C-97.2934 588.788 23.8961 562.968 107.166 522.253C115.387 518.234 119.036 508.38 115.935 499.103C76.7757 381.943 13.3199 263.817 -21.0563 132.623C-23.1788 124.675 -22.9483 116.271 -20.4625 108.617C-19.5101 105.685 -18.9248 102.663 -18.3628 99.603C-7.01565 37.8236 236.023 -168.682 302.598 -223.69" stroke="#5583FF" stroke-width="0.5" stroke-miterlimit="10"/>
<path opacity="0.48" d="M-222.86 799.081C-209.726 774.946 -197.758 750.05 -187.005 724.495C-122.915 587.128 -4.18347 557.6 76.6403 512.94C84.2319 508.746 87.5395 499.438 84.7807 490.587C48.0014 372.596 -13.2846 253.557 -47.5998 122.288C-49.7409 114.28 -49.4471 105.809 -46.8362 98.1505C-45.7886 95.0776 -45.1323 91.8575 -44.4528 88.6555C-31.5728 27.9638 218.737 -184.435 282.404 -237.088" stroke="#5583FF" stroke-width="0.5" stroke-miterlimit="10"/>
<path opacity="0.48" d="M-249.371 796.11C-236.117 772.13 -224.005 747.39 -213.084 721.992C-148.568 585.392 -32.3141 552.139 46.091 503.531C53.0649 499.207 56.0559 490.433 53.6182 482.013C19.2215 363.202 -39.9316 243.228 -74.144 111.914C-75.439 107.081 -75.8464 102.025 -75.3425 97.0461C-75.0144 93.8048 -74.3045 90.6386 -73.2355 87.6257C-72.1069 84.4447 -71.3825 81.0527 -70.5813 77.749C-56.1213 18.1298 201.361 -200.179 262.186 -250.484" stroke="#5583FF" stroke-width="0.5" stroke-miterlimit="10"/>
<path opacity="0.48" d="M-275.878 793.333C-262.478 769.53 -250.217 744.955 -239.145 719.71C-174.22 584.072 -60.3541 546.8 15.638 494.222C22.0101 489.813 24.7082 481.56 22.5702 473.573C-9.45485 353.931 -66.4482 233.014 -100.553 101.564C-101.868 96.6582 -102.255 91.5212 -101.69 86.4747C-101.328 83.2437 -100.581 80.0943 -99.4737 77.1061C-98.2503 73.805 -97.4484 70.2861 -96.5132 66.8699C-80.4717 8.27228 184.276 -215.943 242.346 -264.007" stroke="#5583FF" stroke-width="0.5" stroke-miterlimit="10"/>
<path opacity="0.48" d="M-302.366 790.73C-288.823 767.091 -276.405 742.678 -265.162 717.588C-199.746 582.772 -88.2797 541.601 -14.6216 485.011C-8.83748 480.567 -6.40619 472.834 -8.25451 465.288C-37.7522 344.857 -92.7309 222.887 -126.867 91.4255C-128.21 86.4459 -128.58 81.2245 -127.953 76.1085C-127.558 72.889 -126.775 69.7577 -125.629 66.7956C-124.304 63.3709 -123.416 59.743 -122.335 56.215C-104.657 -1.43828 167.481 -231.583 222.812 -277.304" stroke="#5583FF" stroke-width="0.5" stroke-miterlimit="10"/>
<path opacity="0.48" d="M-328.843 788.178C-315.235 764.653 -302.734 740.359 -291.388 715.393C-225.507 581.478 -116.499 536.259 -45.231 475.674C-39.9992 471.227 -37.8184 463.976 -39.4201 456.855C-66.7071 335.538 -119.317 212.678 -153.382 81.1717C-154.741 76.1161 -155.092 70.812 -154.411 65.6269C-153.986 62.3972 -153.167 59.2617 -151.982 56.3031C-150.576 52.7922 -149.613 49.0888 -148.392 45.4949C-129.13 -11.1823 150.486 -247.267 203.062 -290.814" stroke="#5583FF" stroke-width="0.5" stroke-miterlimit="10"/>
<path opacity="0.48" d="M-355.343 785.625C-341.563 762.292 -328.87 738.188 -317.314 713.406C-250.932 580.421 -144.463 531.079 -75.5658 466.495C-70.8659 462.089 -68.9117 455.319 -70.2781 448.625C-95.214 326.476 -145.574 202.675 -179.701 71.0415C-181.077 65.9169 -181.406 60.5367 -180.664 55.2907C-180.209 52.0696 -179.357 48.9487 -178.138 46.0114C-176.639 42.3984 -175.584 38.6021 -174.206 34.9315C-153.244 -20.9098 133.656 -262.837 183.526 -304.102" stroke="#5583FF" stroke-width="0.5" stroke-miterlimit="10"/>
<path opacity="0.8" d="M-381.846 783.166C-367.872 759.991 -354.988 736.028 -343.246 711.371C-276.379 579.237 -172.473 525.761 -105.991 457.154C-101.803 452.832 -100.058 446.537 -101.203 440.276C-123.697 317.286 -171.812 192.533 -205.822 60.8889C-207.204 55.693 -207.502 50.2373 -206.693 44.9334C-206.204 41.7242 -205.317 38.6213 -204.065 35.7084C-202.469 31.9944 -201.308 28.1026 -199.764 24.3623C-177.019 -30.7285 117.064 -278.411 164.318 -317.413" stroke="#5583FF" stroke-width="0.5" stroke-miterlimit="10"/>
<path opacity="0.8" d="M-408.115 780.588C-393.889 756.921 -380.407 733.034 -369.071 709.22C-301.75 578.042 -200.502 520.362 -136.368 447.71C-132.655 443.504 -131.102 437.667 -132.05 431.827C-152.14 308.038 -198.016 182.328 -231.954 50.7215C-233.348 45.4701 -233.623 39.9529 -232.759 34.6028C-232.242 31.4091 -231.328 28.3269 -230.049 25.4402C-228.365 21.6391 -227.093 17.6646 -225.386 13.8755C-200.866 -40.5489 100.374 -293.915 144.867 -330.68" stroke="#5583FF" stroke-width="0.5" stroke-miterlimit="10"/>
<path opacity="0.8" d="M-434.857 777.932C-420.618 755.043 -407.439 731.366 -395.369 706.99C-327.525 576.817 -228.974 514.836 -167.277 438.145C-164.012 434.087 -162.639 428.698 -163.408 423.277C-181.081 298.823 -224.609 172.012 -258.484 40.3603C-259.911 35.0165 -260.173 29.3954 -259.248 23.9585C-258.701 20.7475 -257.75 17.6547 -256.429 14.7664C-254.647 10.8686 -253.243 6.79645 -251.354 2.95764C-224.898 -50.8199 83.3915 -309.814 125.17 -344.368" stroke="#5583FF" stroke-width="0.5" stroke-miterlimit="10"/>
<path opacity="0.8" d="M-461.274 775.411C-446.88 752.696 -433.543 729.18 -421.316 704.952C-353.022 575.747 -257.191 509.421 -197.935 428.825C-195.08 424.942 -193.865 419.982 -194.475 414.969C-209.729 289.613 -250.964 162.116 -284.75 30.3456C-286.21 24.9235 -286.456 19.2119 -285.467 13.7033C-284.891 10.4938 -283.906 7.40924 -282.549 4.53728C-280.661 0.539978 -279.096 -3.63542 -277.019 -7.52273C-248.541 -60.8323 66.6067 -325.284 105.704 -357.583" stroke="#5583FF" stroke-width="0.5" stroke-miterlimit="10"/>
<path opacity="0.8" d="M-487.757 772.805C-473.206 750.268 -459.725 726.908 -447.367 702.815C-378.624 574.588 -285.565 503.907 -228.728 419.146C-226.261 415.467 -225.194 410.931 -225.661 406.328C-238.447 280.202 -277.325 151.596 -311.089 19.9649C-312.555 14.4682 -312.769 8.67863 -311.712 3.11158C-311.104 -0.0925602 -310.086 -3.16579 -308.697 -6.02032C-306.711 -10.103 -304.978 -14.3701 -302.719 -18.2853C-272.216 -71.1336 49.7612 -341.049 86.167 -371.021" stroke="#5583FF" stroke-width="0.5" stroke-miterlimit="10"/>
<path opacity="0.8" d="M-514.213 770.262C-499.32 747.609 -485.429 724.133 -473.401 700.924C-404.197 573.763 -313.992 498.629 -259.577 409.84C-257.456 406.38 -256.521 402.243 -256.865 398.032C-267.251 271.133 -303.718 141.612 -337.421 10.0125C-338.908 4.42718 -339.1 -1.45917 -337.978 -7.10321C-337.339 -10.3192 -336.285 -13.3975 -334.857 -16.2491C-332.77 -20.4168 -330.847 -24.7784 -328.399 -28.7146C-295.787 -81.1633 32.8943 -356.444 66.6719 -384.3" stroke="#5583FF" stroke-width="0.5" stroke-miterlimit="10"/>
<path opacity="0.8" d="M-540.693 767.704C-525.795 745.05 -511.71 722.105 -499.327 698.554C-429.648 572.259 -342.339 492.758 -290.4 399.974C-288.598 396.753 -287.782 393.008 -288.018 389.187C-295.923 261.545 -329.984 131.059 -363.517 -0.278337C-365.029 -5.93717 -365.202 -11.9063 -364.018 -17.6139C-363.351 -20.8278 -362.267 -23.8982 -360.808 -26.735C-358.621 -30.9873 -356.481 -35.4421 -353.845 -39.3934C-319.061 -91.5433 16.2754 -372.109 47.375 -397.79" stroke="#5583FF" stroke-width="0.5" stroke-miterlimit="10"/>
<path opacity="0.8" d="M-567.198 765.135C-552.212 743.062 -538.253 720.159 -525.374 696.511C-455.321 571.436 -370.909 487.371 -321.367 390.441C-319.848 387.47 -319.14 384.097 -319.288 380.652C-324.78 252.253 -356.403 120.897 -389.961 -10.6493C-391.496 -16.3815 -391.652 -22.4323 -390.413 -28.204C-389.719 -31.4345 -388.603 -34.515 -387.107 -37.354C-384.837 -41.6622 -382.485 -46.1731 -379.683 -50.1093C-342.817 -101.892 -0.744716 -387.849 27.7207 -411.317" stroke="#5583FF" stroke-width="0.5" stroke-miterlimit="10"/>
<path opacity="0.8" d="M-593.694 762.579C-578.542 740.671 -564.421 717.915 -551.388 694.396C-480.932 570.433 -399.312 481.858 -352.388 380.837C-351.134 378.137 -350.528 375.139 -350.599 372.073C-353.597 242.944 -382.788 110.664 -416.277 -20.826C-417.831 -26.6413 -417.963 -32.7819 -416.66 -38.6232C-415.938 -41.8589 -414.79 -44.9389 -413.263 -47.7707C-410.895 -52.161 -408.283 -56.7648 -405.297 -60.7065C-366.176 -112.343 -17.6247 -403.438 8.21777 -424.735" stroke="#5583FF" stroke-width="0.5" stroke-miterlimit="10"/>
</g>
</svg>
