<svg width="24" height="24" viewBox="0 0 24 24" fill="none" xmlns="http://www.w3.org/2000/svg">
<mask id="mask0_5038_67200" style="mask-type:alpha" maskUnits="userSpaceOnUse" x="3" y="2" width="18" height="20">
<path fill-rule="evenodd" clip-rule="evenodd" d="M7 2C7.55228 2 8 2.44772 8 3V4H16V3C16 2.44772 16.4477 2 17 2C17.5523 2 18 2.44772 18 3V4H19C20.1046 4 21 4.89543 21 6V20C21 21.1046 20.1046 22 19 22H5C3.89543 22 3 21.1046 3 20V6C3 4.89543 3.89543 4 5 4H6V3C6 2.44772 6.44772 2 7 2ZM5 10H19V19C19 19.5523 18.5523 20 18 20H6C5.44772 20 5 19.5523 5 19V10ZM13 13H16C16.5523 13 17 13.4477 17 14V17C17 17.5523 16.5523 18 16 18H13C12.4477 18 12 17.5523 12 17V14C12 13.4477 12.4477 13 13 13Z" fill="white"/>
</mask>
<g mask="url(#mask0_5038_67200)">
<rect width="24" height="24" fill="#295EFF"/>
</g>
</svg>
