<svg width="24" height="24" viewBox="0 0 24 24" fill="none" xmlns="http://www.w3.org/2000/svg">
<mask id="mask0_5038_67311" style="mask-type:alpha" maskUnits="userSpaceOnUse" x="2" y="2" width="20" height="20">
<path fill-rule="evenodd" clip-rule="evenodd" d="M12 2C17.5226 2 22 6.47739 22 12C22 17.5226 17.5226 22 12 22C6.47652 22 2 17.5226 2 12C2 6.47739 6.47652 2 12 2ZM12 4C7.58142 4 4 7.58163 4 12C4 16.4184 7.58142 20 12 20C16.418 20 20 16.418 20 12C20 7.58196 16.418 4 12 4ZM15.2407 8.34921C15.6002 7.92988 16.2315 7.88132 16.6508 8.24074C17.0379 8.57252 17.109 9.13595 16.835 9.55048L16.7593 9.65079L10.7593 16.6508C10.4072 17.0615 9.79976 17.1132 9.38499 16.7887L9.29289 16.7071L7.29289 14.7071C6.90237 14.3166 6.90237 13.6834 7.29289 13.2929C7.65338 12.9324 8.22061 12.9047 8.6129 13.2097L8.70711 13.2929L9.943 14.528L15.2407 8.34921Z" fill="white"/>
</mask>
<g mask="url(#mask0_5038_67311)">
<rect width="24" height="24" fill="#295EFF"/>
</g>
</svg>
