<svg width="24" height="24" viewBox="0 0 24 24" fill="none" xmlns="http://www.w3.org/2000/svg">
<mask id="mask0_5038_67204" style="mask-type:alpha" maskUnits="userSpaceOnUse" x="2" y="2" width="20" height="20">
<path fill-rule="evenodd" clip-rule="evenodd" d="M12 2C6.47652 2 2 6.47739 2 12C2 17.5226 6.47652 22 12 22C17.5226 22 22 17.5226 22 12C22 6.47739 17.5226 2 12 2ZM16.9497 7.05025C17.3124 7.41288 17.3383 7.98473 17.0275 8.37725L16.9497 8.46447L13.4142 12L16.9497 15.5355C17.3403 15.9261 17.3403 16.5592 16.9497 16.9497C16.5871 17.3124 16.0153 17.3383 15.6228 17.0275L15.5355 16.9497L12 13.4142L8.46447 16.9497C8.07394 17.3403 7.44078 17.3403 7.05025 16.9497C6.68762 16.5871 6.66172 16.0153 6.97255 15.6228L7.05025 15.5355L10.5858 12L7.05025 8.46447C6.65973 8.07394 6.65973 7.44078 7.05025 7.05025C7.41288 6.68762 7.98473 6.66172 8.37725 6.97255L8.46447 7.05025L12 10.5858L15.5355 7.05025C15.9261 6.65973 16.5592 6.65973 16.9497 7.05025Z" fill="white"/>
</mask>
<g mask="url(#mask0_5038_67204)">
<rect width="24" height="24" fill="#295EFF"/>
</g>
</svg>
