<svg width="346" height="133" viewBox="0 0 346 133" fill="none" xmlns="http://www.w3.org/2000/svg">
<mask id="mask0_5038_67807" style="mask-type:alpha" maskUnits="userSpaceOnUse" x="0" y="0" width="346" height="133">
<path d="M345.166 116.28C345.184 125.146 337.989 132.348 329.123 132.338L16.1874 132.009C7.31665 132 0.158169 124.776 0.230156 115.905L0.90487 32.7707C0.90487 32.7707 61.1046 0.191462 174.821 0.625457C288.537 1.05944 344.997 33.2982 344.997 33.2982L345.166 116.28Z" fill="#E1EDFF"/>
</mask>
<g mask="url(#mask0_5038_67807)">
<path opacity="0.2" d="M165.054 125.975C165.13 104.396 186.176 86.9445 212.06 86.9952C237.945 87.046 258.866 104.58 258.789 126.158C258.713 147.737 237.667 165.188 211.783 165.138C185.898 165.087 164.977 147.553 165.054 125.975Z" fill="#4EEBFF"/>
<path opacity="0.3" d="M121.439 -1.71777L143.058 -1.67539C151.406 -1.65903 158.15 5.12176 158.12 13.4699C158.09 21.8719 151.255 28.6698 142.853 28.6533L139.699 28.6471C129.555 28.6272 121.361 20.3879 121.397 10.2441L121.439 -1.71777Z" fill="#001FFF"/>
<path opacity="0.3" d="M284.396 94.0674L306.015 94.1098C314.363 94.1261 321.107 100.907 321.077 109.255C321.047 117.657 314.212 124.455 305.81 124.438L302.656 124.432C292.512 124.412 284.318 116.173 284.354 106.029L284.396 94.0674Z" fill="#001FFF"/>
<path opacity="0.6" d="M51.8477 80.9971L51.8116 91.1574C51.7819 99.4992 44.9955 106.248 36.6536 106.232L34.0842 106.227C27.1076 106.213 21.472 100.546 21.4968 93.5699C21.5216 86.5933 27.1973 80.9487 34.1739 80.9624L51.8477 80.9971Z" fill="#295EFF"/>
<path opacity="0.2" d="M4.27813 59.2141C4.3284 45.0698 15.8354 33.626 29.9799 33.6537C44.1243 33.6815 55.5498 45.1702 55.4996 59.3145L55.4388 76.4045L4.2174 76.304L4.27813 59.2141Z" fill="#001FFF"/>
<path opacity="0.2" d="M111.1 33.8135L59.6916 33.7127C29.1389 33.6528 4.45899 8.83649 4.56755 -21.7161L4.70798 -61.236L111.437 -61.0268L111.1 33.8135Z" fill="#4EEBFF"/>
<ellipse rx="61.7421" ry="51.4712" transform="matrix(-0.999998 -0.00196031 0.00355337 -0.999994 252.06 38.3631)" fill="#295EFF"/>
<path d="M169.859 71.3841C169.747 102.973 144.048 128.531 112.459 128.469C80.8698 128.407 55.3527 102.749 55.465 71.1598L55.5624 43.7541L169.957 43.9783L169.859 71.3841Z" fill="#295EFF"/>
<path opacity="0.2" fill-rule="evenodd" clip-rule="evenodd" d="M371.203 28.0671L370.945 100.583C370.926 100.583 370.907 100.583 370.887 100.583C346.867 100.536 327.452 84.2644 327.523 64.2397C327.594 44.215 347.124 28.0199 371.145 28.067C371.164 28.067 371.184 28.0671 371.203 28.0671Z" fill="#4EEBFF"/>
</g>
</svg>
