<svg width="535" height="149" viewBox="0 0 535 149" fill="none" xmlns="http://www.w3.org/2000/svg">
<path d="M533.43 131.953C533.391 140.777 526.216 147.919 517.392 147.918L16.1709 147.847C7.26822 147.845 0.0949619 140.577 0.210248 131.675L1.44567 36.2634C1.44567 36.2634 89.349 0.171932 265.922 0.103789C442.495 0.035646 533.855 36.1926 533.855 36.1926L533.43 131.953Z" fill="#E1EDFF"/>
<mask id="mask0_5038_68395" style="mask-type:alpha" maskUnits="userSpaceOnUse" x="0" y="0" width="535" height="149">
<path d="M534.232 132.012C534.257 140.892 527.045 148.119 518.164 148.113L16.2636 147.731C7.38352 147.724 0.232894 140.487 0.332437 131.607L1.3982 36.513C1.3982 36.513 94.5721 -0.00103179 270.576 0.485367C446.58 0.971766 533.966 37.1042 533.966 37.1042L534.232 132.012Z" fill="#E1EDFF"/>
</mask>
<g mask="url(#mask0_5038_68395)">
<path opacity="0.2" d="M255.46 140.974C255.579 116.789 288.152 97.2298 328.214 97.2867C368.277 97.3435 400.658 116.995 400.539 141.18C400.42 165.364 367.847 184.924 327.785 184.867C287.722 184.81 255.341 165.158 255.46 140.974Z" fill="#4EEBFF"/>
<path opacity="0.3" d="M187.959 -2.14062L227.873 -2.08396C237.229 -2.07068 244.777 5.52496 244.731 14.8814C244.685 24.2982 237.014 31.9211 227.597 31.9078L216.22 31.8916C200.52 31.8693 187.855 19.1239 187.932 3.42394L187.959 -2.14062Z" fill="#001FFF"/>
<path opacity="0.3" d="M440.174 105.213L480.088 105.27C489.444 105.283 496.992 112.878 496.946 122.235C496.9 131.652 489.228 139.275 479.811 139.261L468.435 139.245C452.734 139.223 440.069 126.477 440.147 110.777L440.174 105.213Z" fill="#001FFF"/>
<path opacity="0.6" d="M80.25 90.5645L80.2258 95.503C80.1624 108.414 69.6446 118.865 56.7335 118.847L47.3631 118.834C39.5439 118.823 33.2362 112.475 33.2745 104.656C33.3129 96.8366 39.6828 90.5069 47.5021 90.518L80.25 90.5645Z" fill="#295EFF"/>
<path opacity="0.2" d="M6.56916 77.0847C6.67658 55.193 24.5106 37.4715 46.4025 37.5026C68.2945 37.5336 85.9543 55.3056 85.8469 77.1973L85.8066 85.4166L6.52882 85.304L6.56916 77.0847Z" fill="#001FFF"/>
<path opacity="0.2" d="M171.955 37.6816L62.0869 37.5257C31.5342 37.4823 6.88782 12.6795 7.03775 -17.8729L7.28788 -68.8476L172.477 -68.6131L171.955 37.6816Z" fill="#4EEBFF"/>
<ellipse rx="95.5609" ry="57.6881" transform="matrix(-0.999999 -0.00141953 0.00490703 -0.999988 390.127 42.7805)" fill="#295EFF"/>
<path d="M262.88 83.883C262.718 117.027 235.717 143.857 202.573 143.81L158.307 143.747C125.163 143.7 98.4259 116.794 98.5886 83.6498L98.7594 48.8416L263.051 49.0748L262.88 83.883Z" fill="#295EFF"/>
<path opacity="0.2" fill-rule="evenodd" clip-rule="evenodd" d="M574.526 31.2406L574.127 112.515C574.098 112.515 574.07 112.515 574.041 112.515C536.863 112.462 506.814 94.2251 506.924 71.7819C507.034 49.3387 537.262 31.1877 574.44 31.2404C574.468 31.2405 574.497 31.2405 574.526 31.2406Z" fill="#4EEBFF"/>
</g>
</svg>
