<svg width="40" height="40" viewBox="0 0 40 40" fill="none" xmlns="http://www.w3.org/2000/svg">
<rect width="40" height="40" rx="4" fill="#F5F9FF"/>
<g clip-path="url(#clip0_5038_67097)">
<path d="M22 29L20 31L18 29H12.995C12.4659 29 11.9585 28.7898 11.5843 28.4157C11.2102 28.0415 11 27.5341 11 27.005V12.995C11 11.893 11.893 11 12.995 11H27.005C28.107 11 29 11.893 29 12.995V27.005C29 27.5341 28.7898 28.0415 28.4157 28.4157C28.0415 28.7898 27.5341 29 27.005 29H22ZM27 27V13H13V27H18.828L20 28.172L21.172 27H27ZM15.972 26.18C15.357 25.9136 14.7704 25.586 14.221 25.202C14.8553 24.219 15.726 23.4108 16.7534 22.8514C17.7808 22.292 18.9322 21.9993 20.102 22C22.502 22 24.619 23.207 25.88 25.047C25.3412 25.4456 24.7636 25.789 24.156 26.072C23.6929 25.43 23.0838 24.9073 22.3789 24.547C21.674 24.1868 20.8936 23.9993 20.102 24C18.387 24 16.872 24.864 15.972 26.18ZM20 21C19.5404 21 19.0852 20.9095 18.6606 20.7336C18.236 20.5577 17.8501 20.2999 17.5251 19.9749C17.2001 19.6499 16.9423 19.264 16.7664 18.8394C16.5905 18.4148 16.5 17.9596 16.5 17.5C16.5 17.0404 16.5905 16.5852 16.7664 16.1606C16.9423 15.736 17.2001 15.3501 17.5251 15.0251C17.8501 14.7001 18.236 14.4423 18.6606 14.2664C19.0852 14.0905 19.5404 14 20 14C20.9283 14 21.8185 14.3687 22.4749 15.0251C23.1313 15.6815 23.5 16.5717 23.5 17.5C23.5 18.4283 23.1313 19.3185 22.4749 19.9749C21.8185 20.6313 20.9283 21 20 21ZM20 19C20.3978 19 20.7794 18.842 21.0607 18.5607C21.342 18.2794 21.5 17.8978 21.5 17.5C21.5 17.1022 21.342 16.7206 21.0607 16.4393C20.7794 16.158 20.3978 16 20 16C19.6022 16 19.2206 16.158 18.9393 16.4393C18.658 16.7206 18.5 17.1022 18.5 17.5C18.5 17.8978 18.658 18.2794 18.9393 18.5607C19.2206 18.842 19.6022 19 20 19Z" fill="#0038E1"/>
</g>
<defs>
<clipPath id="clip0_5038_67097">
<rect width="24" height="24" fill="white" transform="translate(8 8)"/>
</clipPath>
</defs>
</svg>
