<svg width="41" height="40" viewBox="0 0 41 40" fill="none" xmlns="http://www.w3.org/2000/svg">
<rect x="0.666016" width="40" height="40" rx="4" fill="#F5F9FF"/>
<g clip-path="url(#clip0_5038_67111)">
<path d="M30.666 15H31.666V25H30.666V28C30.666 28.2652 30.5607 28.5196 30.3731 28.7071C30.1856 28.8946 29.9312 29 29.666 29H11.666C11.4008 29 11.1464 28.8946 10.9589 28.7071C10.7714 28.5196 10.666 28.2652 10.666 28V12C10.666 11.7348 10.7714 11.4804 10.9589 11.2929C11.1464 11.1054 11.4008 11 11.666 11H29.666C29.9312 11 30.1856 11.1054 30.3731 11.2929C30.5607 11.4804 30.666 11.7348 30.666 12V15ZM28.666 25H22.666C21.3399 25 20.0682 24.4732 19.1305 23.5355C18.1928 22.5979 17.666 21.3261 17.666 20C17.666 18.6739 18.1928 17.4021 19.1305 16.4645C20.0682 15.5268 21.3399 15 22.666 15H28.666V13H12.666V27H28.666V25ZM29.666 23V17H22.666C21.8704 17 21.1073 17.3161 20.5447 17.8787C19.9821 18.4413 19.666 19.2044 19.666 20C19.666 20.7956 19.9821 21.5587 20.5447 22.1213C21.1073 22.6839 21.8704 23 22.666 23H29.666ZM22.666 19H25.666V21H22.666V19Z" fill="#0038E1"/>
</g>
<defs>
<clipPath id="clip0_5038_67111">
<rect width="24" height="24" fill="white" transform="translate(8.66602 8)"/>
</clipPath>
</defs>
</svg>
