<svg width="41" height="40" viewBox="0 0 41 40" fill="none" xmlns="http://www.w3.org/2000/svg">
<rect x="0.333984" width="40" height="40" rx="4" fill="#F5F9FF"/>
<g clip-path="url(#clip0_5038_67104)">
<path d="M28.334 10C28.886 10 29.334 10.448 29.334 11V14.757L27.334 16.757V12H13.334V28H27.334V25.242L29.334 23.242V29C29.334 29.552 28.886 30 28.334 30H12.334C11.782 30 11.334 29.552 11.334 29V11C11.334 10.448 11.782 10 12.334 10H28.334ZM30.112 16.808L31.526 18.222L23.748 26L22.332 25.998L22.334 24.586L30.112 16.808ZM21.334 20V22H16.334V20H21.334ZM24.334 16V18H16.334V16H24.334Z" fill="#0038E1"/>
</g>
<defs>
<clipPath id="clip0_5038_67104">
<rect width="24" height="24" fill="white" transform="translate(8.33398 8)"/>
</clipPath>
</defs>
</svg>
