<svg width="209" height="300" viewBox="0 0 209 300" fill="none" xmlns="http://www.w3.org/2000/svg">
<mask id="mask0_5038_67174" style="mask-type:alpha" maskUnits="userSpaceOnUse" x="0" y="0" width="209" height="299">
<path d="M190.964 0.10398C199.814 0.0472775 207.035 7.18643 207.079 16.0368L208.418 282.849C208.463 291.712 201.295 298.916 192.432 298.916L52.5605 298.917C52.5605 298.917 0.999018 247.004 0.999018 148.504C0.999018 50.0039 50.499 1.00391 50.499 1.00391L190.964 0.10398Z" fill="#E1EDFF"/>
</mask>
<g mask="url(#mask0_5038_67174)">
<path opacity="0.2" d="M198.051 156.079C164.139 156.165 136.586 138.059 136.511 115.638C136.435 93.2177 163.866 74.9729 197.778 74.8873C231.69 74.8018 259.243 92.9078 259.318 115.328C259.394 137.749 231.964 155.994 198.051 156.079Z" fill="#4EEBFF"/>
<path opacity="0.3" d="M-2.36523 194.753L-2.39239 186.69C-2.43657 173.57 8.16337 162.908 21.2832 162.875L29.2829 162.854C38.0693 162.832 45.2161 169.937 45.2457 178.723C45.2753 187.51 38.1764 194.651 29.39 194.673L-2.36523 194.753Z" fill="#001FFF"/>
<path opacity="0.3" d="M147.191 52.9336L147.164 44.8707C147.12 31.7509 157.72 21.0884 170.84 21.0553L178.84 21.0351C187.626 21.0129 194.773 28.1177 194.802 36.9041C194.832 45.6906 187.733 52.8313 178.947 52.8535L147.191 52.9336Z" fill="#001FFF"/>
<path opacity="0.6" d="M128.043 254.451L154.665 254.384C161.891 254.366 167.768 260.208 167.792 267.434C167.817 274.706 161.941 280.616 154.669 280.635L147.984 280.651C137.02 280.679 128.101 271.813 128.065 260.849L128.043 254.451Z" fill="#295EFF"/>
<path opacity="0.2" d="M76.0292 295.852C63.7776 295.883 53.8123 285.976 53.771 273.725C53.7297 261.473 63.6282 251.516 75.8798 251.485L120.804 251.372L120.953 295.739L76.0292 295.852Z" fill="#001FFF"/>
<path opacity="0.2" d="M53.5371 203.461L53.6621 240.587C53.765 271.139 29.0806 295.969 -1.47206 296.047L-95.2013 296.283L-95.5127 203.837L53.5371 203.461Z" fill="#4EEBFF"/>
<ellipse rx="53.4798" ry="80.8913" transform="matrix(0.00336762 0.999994 -0.999997 0.00252291 59.8418 81.333)" fill="#295EFF"/>
<path d="M152.576 152.2C179.938 152.131 202.194 174.256 202.286 201.618C202.378 228.98 180.272 251.217 152.91 251.286L69.4923 251.497L69.1586 152.411L152.576 152.2Z" fill="#295EFF"/>
<path opacity="0.2" fill-rule="evenodd" clip-rule="evenodd" d="M42.9471 -21.7906L156.912 -22.0781C156.912 -22.062 156.912 -22.046 156.912 -22.0299C156.982 -1.22373 131.527 15.7074 100.057 15.7868C68.586 15.8662 43.0173 -0.936202 42.9472 -21.7424C42.9472 -21.7584 42.9471 -21.7745 42.9471 -21.7906Z" fill="#4EEBFF"/>
</g>
</svg>
