<svg width="375" height="469" viewBox="0 0 375 469" fill="none" xmlns="http://www.w3.org/2000/svg">
<mask id="mask0_5038_67835" style="mask-type:alpha" maskUnits="userSpaceOnUse" x="0" y="0" width="375" height="469">
<rect width="375" height="468.728" fill="#F5FAFF"/>
</mask>
<g mask="url(#mask0_5038_67835)">
<path opacity="0.3" d="M-135.39 31.8407C-119.032 34.6706 -101.831 37.1394 -83.8896 39.2322C1.48043 52.6806 -32.9709 84.0631 -67.5919 110.718C-77.2268 118.136 -63.7259 122.527 -43.1473 118.483C37.2883 102.677 121.216 84.5421 210.034 77.6354C282.025 72.6396 333.238 101.897 378.581 131.521" stroke="#5583FF" stroke-width="0.5" stroke-miterlimit="10"/>
<path opacity="0.3" d="M-128.187 25.7407C-111.97 28.5943 -94.9204 31.0952 -77.1363 33.2287C8.12864 46.8217 -25.1627 78.1095 -57.3873 104.411C-66.1838 111.591 -53.0133 115.752 -33.0536 111.934C48.0549 96.4188 132.737 78.1601 222.318 71.5886C228.031 71.1968 233.719 71.0371 239.217 71.114C300.687 71.6583 350.955 100.445 391.702 127.026" stroke="#5583FF" stroke-width="0.5" stroke-miterlimit="10"/>
<path opacity="0.3" d="M-120.969 19.6443C-104.866 22.5145 -87.9411 25.0393 -70.2882 27.2047C14.8085 40.9352 -17.1789 72.0991 -46.9306 98.0239C-54.887 104.957 -42.0564 108.896 -22.7231 105.324C59.0367 90.2147 144.448 72.1189 234.693 65.5205C240.469 65.1346 246.21 65.0026 251.723 65.129C311.357 65.9774 365.158 96.6076 404.862 122.498" stroke="#5583FF" stroke-width="0.5" stroke-miterlimit="10"/>
<path opacity="0.3" d="M-113.765 13.5579C-97.8181 16.4589 -81.0546 19.0217 -63.5659 21.2322C21.3437 35.1087 -9.2391 66.1193 -36.4843 91.6675C-43.6085 98.348 -31.1133 102.068 -12.4134 98.7331C69.9241 84.0472 155.999 66.1452 246.883 59.5198C252.713 59.1449 258.495 59.0397 264.017 59.2081C321.809 60.3478 379.154 92.8306 417.841 118.037" stroke="#5583FF" stroke-width="0.5" stroke-miterlimit="10"/>
<path opacity="0.3" d="M-106.549 7.45695C-90.746 10.3879 -74.1227 12.9836 -56.7703 15.2301C27.9538 29.2462 -1.17599 60.1077 -25.7383 85.2555C-31.9974 91.6637 -19.8341 95.1448 -1.80753 92.0473C81.1067 77.8003 167.874 60.1145 259.346 53.4686C265.266 53.1002 271.125 53.022 276.683 53.237C332.624 54.6553 393.505 89.0073 431.151 113.526" stroke="#5583FF" stroke-width="0.5" stroke-miterlimit="10"/>
<path opacity="0.3" d="M-99.324 1.33981C-83.6505 4.29096 -67.1772 6.91861 -49.9888 9.20922C34.488 23.3568 7.0193 54.0162 -14.9533 78.7448C-20.4153 84.8918 -8.58569 88.1588 8.80399 85.2828C92.1971 71.4906 179.579 54.0615 271.573 47.3863C277.574 47.0351 283.497 46.9899 289.079 47.2526C343.155 48.9247 407.645 85.1765 444.322 109.01" stroke="#5583FF" stroke-width="0.5" stroke-miterlimit="10"/>
<path opacity="0.3" d="M-92.1024 -4.76554C-76.5551 -1.79099 -60.2158 0.866696 -43.1662 3.19421C41.0664 17.4773 15.2137 47.959 -4.00876 72.2567C-8.64737 78.12 2.83106 81.1613 19.5372 78.5103C103.45 65.1943 191.446 48.0612 283.931 41.3317C290.002 40.9849 295.982 40.9676 301.57 41.2806C353.834 43.1791 421.765 81.3294 457.374 104.478" stroke="#5583FF" stroke-width="0.5" stroke-miterlimit="10"/>
<path opacity="0.3" d="M-84.7617 -10.8709C-69.3564 -7.86595 -53.1556 -5.17513 -36.2404 -2.81193C47.7557 11.6184 23.6936 41.8541 7.20366 65.735C3.35039 71.3153 14.4756 74.1455 30.5101 71.7044C114.899 58.8569 203.477 41.9556 296.417 35.2567C302.568 34.9209 308.61 34.9326 314.216 35.291C364.678 37.3946 436.123 77.4709 470.72 99.9422" stroke="#5583FF" stroke-width="0.5" stroke-miterlimit="10"/>
<path opacity="0.3" d="M-77.6288 -17.0022C-62.3634 -13.9724 -46.3109 -11.2499 -29.5491 -8.8477C54.1604 5.71563 31.9994 35.7119 18.352 59.1577C15.2736 64.4464 26.0453 67.0671 41.3985 64.8304C126.181 52.4791 215.255 35.9245 308.616 29.2112C314.84 28.8795 320.94 28.9191 326.547 29.3276C375.217 31.6149 450.17 73.6336 483.727 95.4252" stroke="#5583FF" stroke-width="0.5" stroke-miterlimit="10"/>
<path opacity="0.3" d="M-70.3759 -23.1305C-55.2423 -20.0743 -39.3286 -17.3188 -22.7098 -14.8772C60.7008 -0.18052 40.4909 29.5663 29.7113 52.5679C27.3709 57.5619 37.7835 59.9749 52.4557 57.9338C137.632 46.0842 227.213 29.8651 320.988 23.1427C327.287 22.821 333.445 22.8856 339.07 23.3322C385.922 25.7996 464.314 69.7938 496.938 90.8868" stroke="#5583FF" stroke-width="0.5" stroke-miterlimit="10"/>
<path opacity="0.48" d="M-63.17 -29.2352C-48.167 -26.1537 -32.3796 -23.3713 -15.8824 -20.9012C67.2209 -6.06103 49.0331 23.4176 41.1793 45.9593C39.5436 50.6539 49.5811 52.8682 63.5676 51.0151C149.103 39.6818 239.183 23.8087 333.32 17.0765C339.699 16.7689 345.913 16.8656 351.545 17.3599C396.623 19.9683 478.543 65.9224 510.112 86.3474" stroke="#5583FF" stroke-width="0.5" stroke-miterlimit="10"/>
<path opacity="0.48" d="M-55.8749 -35.3721C-41.0088 -32.2653 -25.3743 -29.4479 -9.04171 -26.9327C73.7312 -11.9582 57.6662 17.2307 52.8192 39.3013C51.8545 43.6941 61.5157 45.7173 74.8185 44.0416C160.722 33.2206 251.281 17.7258 345.759 10.9849C351.261 10.5965 356.67 10.6249 361.468 11.0601C363.28 11.2243 365.121 11.3346 367.057 11.4251C413.711 13.6051 493.478 62.4477 523.397 81.7904" stroke="#5583FF" stroke-width="0.5" stroke-miterlimit="10"/>
<path opacity="0.48" d="M-48.6244 -41.4959C-33.9132 -38.3584 -18.4188 -35.5122 -2.21259 -32.9704C80.2129 -17.8547 66.3824 11.03 64.5237 32.6429C64.1715 36.7389 73.4473 38.5883 86.0801 37.0804C172.321 26.7871 263.305 11.6726 358.066 4.93507C363.588 4.54128 369.01 4.58372 373.77 5.04868C375.721 5.23923 377.725 5.36872 379.808 5.48298C425.201 7.9728 507.722 58.6274 536.55 77.2617" stroke="#5583FF" stroke-width="0.5" stroke-miterlimit="10"/>
<path opacity="0.48" d="M-41.4037 -47.6069C-26.8475 -44.4361 -11.5232 -41.5466 4.50178 -38.9512C86.5722 -23.7041 75.0546 4.85226 76.2595 25.9791C76.4761 29.7783 85.363 31.4618 97.3281 30.1125C183.866 20.3542 275.274 5.65563 370.309 -1.08467C375.87 -1.48447 381.324 -1.42942 386.069 -0.936531C388.13 -0.722528 390.269 -0.575159 392.461 -0.435582C436.627 2.37661 521.901 54.8376 549.645 72.7927" stroke="#5583FF" stroke-width="0.5" stroke-miterlimit="10"/>
<path opacity="0.48" d="M-34.2872 -53.7477C-19.7929 -50.5524 -4.52307 -47.6388 11.4549 -45.02C93.1156 -29.6372 84.0314 -1.43025 88.3364 19.2086C89.0681 22.7165 97.5621 24.2406 108.872 23.0396C195.682 13.8211 287.484 -0.452698 382.799 -7.14847C388.368 -7.54863 393.822 -7.48091 398.529 -6.96573C400.692 -6.72898 402.965 -6.56342 405.253 -6.39602C448.258 -3.25044 536.266 50.9763 562.984 68.2087" stroke="#5583FF" stroke-width="0.5" stroke-miterlimit="10"/>
<path opacity="0.48" d="M-26.8993 -59.8623C-12.5764 -56.6472 2.5115 -53.7065 18.2994 -51.0527C99.5505 -35.5421 92.9532 -7.69629 100.446 12.4477C101.644 15.6679 109.744 17.0413 120.405 15.9781C207.43 7.29938 299.652 -6.53596 395.161 -13.2641C400.746 -13.6686 406.209 -13.5892 410.88 -13.05C413.153 -12.7877 415.577 -12.5997 417.964 -12.3991C459.891 -8.87557 550.533 47.0669 576.201 63.6065" stroke="#5583FF" stroke-width="0.5" stroke-miterlimit="10"/>
<path opacity="0.48" d="M-19.6387 -65.9876C-5.46765 -62.7424 9.47484 -59.7702 25.1243 -57.0839C105.949 -41.4485 102.018 -13.9953 112.625 5.64928C114.217 8.59664 121.917 9.83866 131.953 8.9047C219.252 0.780003 311.806 -12.6098 407.528 -19.343C413.134 -19.7457 418.605 -19.651 423.244 -19.0875C425.61 -18.8 428.131 -18.5905 430.597 -18.3555C471.419 -14.4636 564.777 43.1883 589.409 59.045" stroke="#5583FF" stroke-width="0.5" stroke-miterlimit="10"/>
<path opacity="0.48" d="M-12.4033 -72.1062C1.65238 -68.8403 16.4633 -65.839 31.9686 -63.1144C112.338 -47.3465 111.087 -20.3094 124.923 -1.1775C126.86 1.50157 134.162 2.61858 143.576 1.8042C231.091 -5.76613 323.971 -18.6872 419.87 -25.4157C425.504 -25.8209 430.994 -25.7142 435.61 -25.1283C438.083 -24.8145 440.697 -24.5829 443.249 -24.3103C483.074 -20.0571 579.022 39.3125 602.612 54.4774" stroke="#5583FF" stroke-width="0.5" stroke-miterlimit="10"/>
<path opacity="0.48" d="M-5.1476 -78.2339C8.77803 -74.9413 23.4524 -71.9077 38.8168 -69.1452C118.768 -53.2505 120.261 -26.6469 137.332 -8.02546C139.555 -5.60115 146.463 -4.59699 155.276 -5.30176C242.99 -12.3159 336.206 -24.7715 432.242 -31.4849C435.832 -31.7437 439.4 -31.7941 442.736 -31.6333C444.607 -31.5431 446.383 -31.3874 448.033 -31.1702C450.587 -30.834 453.269 -30.5821 455.875 -30.2723C494.696 -25.6568 593.281 35.4178 615.821 49.9076" stroke="#5583FF" stroke-width="0.5" stroke-miterlimit="10"/>
<path opacity="0.48" d="M1.9776 -84.3672C15.7521 -81.0421 30.2832 -77.9753 45.5124 -75.1792C124.9 -59.1657 129.354 -32.9849 149.688 -14.875C152.14 -12.6912 158.659 -11.7902 166.89 -12.395C254.803 -18.8537 348.349 -30.8329 444.574 -37.5286C448.218 -37.7914 451.838 -37.8364 455.208 -37.6608C457.051 -37.5647 458.799 -37.4037 460.418 -37.1818C463.062 -36.8194 465.821 -36.5422 468.484 -36.1895C506.364 -31.1727 607.504 31.5894 629.045 45.4199" stroke="#5583FF" stroke-width="0.5" stroke-miterlimit="10"/>
<path opacity="0.48" d="M8.98182 -90.4897C22.6148 -87.1329 37.0038 -84.0311 52.0915 -81.1965C130.981 -65.0464 138.357 -39.3012 161.971 -21.6881C164.593 -19.7321 170.715 -18.9248 178.372 -19.4351C266.423 -25.3032 360.393 -36.8347 456.741 -43.5452C460.441 -43.8137 464.116 -43.8539 467.521 -43.6633C469.337 -43.5617 471.053 -43.3957 472.64 -43.1696C475.378 -42.7796 478.218 -42.4727 480.934 -42.0726C517.933 -36.6231 621.587 27.8349 642.051 41.0073" stroke="#5583FF" stroke-width="0.5" stroke-miterlimit="10"/>
<path opacity="0.48" d="M15.9503 -96.6152C29.4919 -93.2444 43.7817 -90.1243 58.7643 -87.2669C137.083 -70.9903 147.533 -45.7056 174.429 -28.6047C177.178 -26.8565 182.936 -26.1351 190.064 -26.5666C278.363 -31.9119 372.568 -42.9122 469.028 -49.6124C472.784 -49.8842 476.513 -49.9194 479.955 -49.7154C481.761 -49.6083 483.466 -49.4368 485.038 -49.2052C487.839 -48.7927 490.733 -48.4599 493.468 -48.0157C529.572 -42.1511 635.739 24.0277 655.248 36.541" stroke="#5583FF" stroke-width="0.5" stroke-miterlimit="10"/>
<path opacity="0.48" d="M22.9223 -102.745C36.2975 -99.3356 50.4188 -96.1725 65.2324 -93.2679C142.941 -76.8592 156.56 -52.0617 186.74 -35.4709C189.566 -33.9172 194.959 -33.2723 201.569 -33.6302C290.049 -38.4213 384.541 -48.9142 481.19 -55.6338C484.997 -55.9088 488.774 -55.9381 492.246 -55.7197C494.028 -55.6076 495.706 -55.4317 497.252 -55.1965C500.13 -54.7586 503.091 -54.3931 505.85 -53.8994C541.144 -47.5844 649.779 20.26 668.248 32.124" stroke="#5583FF" stroke-width="0.5" stroke-miterlimit="10"/>
<path opacity="0.8" d="M29.8299 -108.875C43.0573 -105.422 57.0435 -102.216 71.734 -99.2692C148.876 -82.7335 165.706 -58.437 199.195 -42.3677C202.053 -40.9962 207.081 -40.4207 213.182 -40.7108C301.827 -44.9263 396.61 -54.9097 493.328 -61.6083C497.185 -61.884 501.008 -61.9054 504.507 -61.6709C506.261 -61.5534 507.91 -61.373 509.427 -61.1346C512.382 -60.6698 515.409 -60.2668 518.186 -59.7209C552.72 -52.9317 663.773 16.548 681.199 27.7842" stroke="#5583FF" stroke-width="0.5" stroke-miterlimit="10"/>
<path opacity="0.8" d="M36.7786 -114.952C50.2957 -111.436 64.1116 -108.092 78.3009 -105.247C154.794 -88.5949 174.927 -64.829 211.724 -49.2674C214.577 -48.0612 219.255 -47.5476 224.875 -47.7786C313.659 -51.4272 408.729 -60.8999 505.484 -67.5872C509.382 -67.8654 513.243 -67.881 516.763 -67.633C518.489 -67.5114 520.11 -67.328 521.598 -67.0875C524.619 -66.599 527.701 -66.1564 530.482 -65.5597C564.316 -58.2985 677.744 12.8093 694.174 23.3853" stroke="#5583FF" stroke-width="0.5" stroke-miterlimit="10"/>
<path opacity="0.8" d="M43.8707 -121.138C56.8481 -117.626 70.5788 -114.353 85.0111 -111.333C160.796 -94.551 184.327 -71.3312 224.445 -56.2986C227.258 -55.2448 231.593 -54.7881 236.748 -54.9668C325.574 -58.0455 421.004 -66.9789 517.848 -73.6562C521.816 -73.9412 525.746 -73.9529 529.314 -73.6901C531.032 -73.5635 532.643 -73.375 534.118 -73.1294C537.215 -72.6139 540.362 -72.1236 543.144 -71.4703C576.276 -63.6899 692.04 9.00755 707.482 18.9336" stroke="#5583FF" stroke-width="0.5" stroke-miterlimit="10"/>
<path opacity="0.8" d="M50.8037 -127.248C63.6308 -123.701 77.2193 -120.394 91.5179 -117.338C166.624 -100.445 193.606 -77.7825 236.953 -63.2815C239.693 -62.3647 243.698 -61.9584 248.41 -62.0911C337.43 -64.5973 432.945 -73.0055 529.92 -79.6658C533.948 -79.9577 537.937 -79.965 541.542 -79.6868C543.239 -79.5558 544.827 -79.3635 546.277 -79.1147C549.451 -78.5706 552.664 -78.0226 555.448 -77.3104C587.99 -68.985 706 5.24869 720.418 14.5327" stroke="#5583FF" stroke-width="0.5" stroke-miterlimit="10"/>
<path opacity="0.8" d="M57.8138 -133.375C70.4871 -129.793 83.94 -126.454 98.1193 -123.369C172.534 -106.366 203 -84.276 249.747 -70.3005C252.388 -69.511 256.061 -69.1524 260.34 -69.2448C349.455 -71.1679 445.327 -79.0309 542.263 -85.6916C546.345 -85.9842 550.381 -85.9833 554.013 -85.6888C555.686 -85.5531 557.25 -85.357 558.677 -85.1056C561.918 -84.5345 565.185 -83.9262 567.957 -83.1569C599.92 -74.2847 720.178 1.47514 733.527 10.1147" stroke="#5583FF" stroke-width="0.5" stroke-miterlimit="10"/>
<path opacity="0.8" d="M64.7689 -139.496C77.4544 -135.834 90.9058 -132.398 104.54 -129.397C178.19 -112.284 212.238 -90.7906 262.289 -77.3431C264.811 -76.6657 268.171 -76.3495 272.045 -76.4083C361.264 -77.7633 457.344 -85.0686 554.304 -91.7191C558.45 -92.0161 562.549 -92.0091 566.221 -91.6987C567.883 -91.5582 569.433 -91.3576 570.845 -91.1021C574.152 -90.5035 577.474 -89.8262 580.228 -88.9982C611.65 -79.5527 734.101 -2.30629 746.512 5.70557" stroke="#5583FF" stroke-width="0.5" stroke-miterlimit="10"/>
<path opacity="0.8" d="M71.7399 -145.62C84.4259 -141.957 97.4721 -138.481 111.273 -135.395C184.287 -118.167 221.877 -97.2845 275.219 -84.3781C277.597 -83.8025 280.648 -83.525 284.128 -83.555C373.413 -84.3234 469.733 -91.0698 566.532 -97.6869C570.735 -97.989 574.887 -97.9768 578.59 -97.6515C580.231 -97.5073 581.76 -97.3038 583.15 -97.0463C586.525 -96.4207 589.861 -95.6737 592.599 -94.7879C623.491 -84.7926 748.157 -6.02897 759.604 1.34619" stroke="#5583FF" stroke-width="0.5" stroke-miterlimit="10"/>
</g>
</svg>
